<svg
              xmlns="http://www.w3.org/2000/svg"
              width="29"
              height="28"
              viewBox="0 0 29 28"
              fill="none"
            >
              <path
                d="M22.153 27.9997H5.99259C5.09353 27.9995 4.20637 27.7941 3.39881 27.3991C2.59124 27.0041 1.88459 26.4299 1.33276 25.7204C0.780932 25.0109 0.398497 24.1848 0.214628 23.3051C0.0307587 22.4254 0.0503128 21.5154 0.271798 20.6444L3.54698 7.27991C3.60597 7.04097 3.74505 6.82943 3.94107 6.68051C4.1371 6.5316 4.37824 6.45429 4.62434 6.46145H22.6702C22.9078 6.45058 23.1424 6.51863 23.3373 6.655C23.5321 6.79136 23.6764 6.98837 23.7475 7.21529L27.82 20.3105C28.0984 21.2 28.1625 22.1426 28.0071 23.0615C27.8517 23.9805 27.4812 24.8496 26.9257 25.5982C26.3794 26.3499 25.6612 26.9601 24.8309 27.3778C24.0007 27.7956 23.0825 28.0088 22.153 27.9997ZM5.43236 8.61528L2.31879 21.1613C2.18014 21.7148 2.16902 22.2926 2.28629 22.8511C2.40356 23.4095 2.64615 23.9341 2.99576 24.3851C3.34537 24.8362 3.79287 25.2021 4.30454 25.4551C4.8162 25.7082 5.37866 25.8418 5.9495 25.8459H22.1099C22.6963 25.8468 23.2744 25.7087 23.797 25.4429C24.3195 25.177 24.7715 24.791 25.1158 24.3167C25.47 23.8396 25.7064 23.2855 25.8056 22.6997C25.9048 22.1139 25.8641 21.513 25.6868 20.9459L21.8945 8.61528H5.43236Z"
                fill="#085CB2"
              />
              <path
                d="M18.3603 15.0768C18.0746 15.0768 17.8006 14.9633 17.5985 14.7613C17.3965 14.5594 17.283 14.2855 17.283 13.9999V5.38456C17.283 4.52772 16.9424 3.70597 16.3363 3.10008C15.7302 2.4942 14.9081 2.15382 14.0509 2.15382C13.1937 2.15382 12.3716 2.4942 11.7654 3.10008C11.1593 3.70597 10.8188 4.52772 10.8188 5.38456V13.9999C10.8188 14.2855 10.7053 14.5594 10.5032 14.7613C10.3012 14.9633 10.0272 15.0768 9.74142 15.0768C9.45569 15.0768 9.18166 14.9633 8.97961 14.7613C8.77757 14.5594 8.66406 14.2855 8.66406 13.9999V5.38456C8.66406 3.95649 9.2316 2.5869 10.2418 1.5771C11.252 0.5673 12.6222 0 14.0509 0C15.4795 0 16.8497 0.5673 17.8599 1.5771C18.8701 2.5869 19.4377 3.95649 19.4377 5.38456V13.9999C19.4377 14.2855 19.3242 14.5594 19.1221 14.7613C18.9201 14.9633 18.6461 15.0768 18.3603 15.0768Z"
                fill="#085CB2"
              />
            </svg>