<svg xmlns="http://www.w3.org/2000/svg" width="32" height="30" viewBox="0 0 32 30" fill="none">
  <path d="M15.6549 5.74364C14.2557 4.49127 12.4242 3.7962 10.5233 3.79614C9.51723 3.79716 8.52127 3.99184 7.59277 4.36898C6.66426 4.74611 5.82154 5.29826 5.1131 5.99364C2.09144 8.94739 2.09272 13.5674 5.11567 16.5086L14.5312 25.6736C14.7496 26.0474 15.1708 26.2886 15.6549 26.2886C15.8537 26.2868 16.0493 26.2395 16.2259 26.1507C16.4025 26.062 16.5553 25.9341 16.672 25.7774L26.1941 16.5086C29.2171 13.5661 29.2171 8.94739 26.1916 5.98864C25.4835 5.29454 24.6414 4.74351 23.7138 4.36725C22.7862 3.99098 21.7914 3.79689 20.7865 3.79614C18.8857 3.79645 17.0543 4.49148 15.6549 5.74364ZM24.3757 7.75614C26.3829 9.71989 26.3842 12.7874 24.3783 14.7411L15.6549 23.2324L6.9315 14.7411C4.92561 12.7874 4.9269 9.71989 6.92893 7.76114C7.9049 6.81614 9.18137 6.29614 10.5233 6.29614C11.8653 6.29614 13.1366 6.81614 14.1049 7.75864L14.747 8.38364C14.8661 8.49982 15.0077 8.592 15.1635 8.65489C15.3192 8.71777 15.4862 8.75014 15.6549 8.75014C15.8236 8.75014 15.9906 8.71777 16.1463 8.65489C16.3021 8.592 16.4437 8.49982 16.5628 8.38364L17.2049 7.75864C19.1466 5.87239 22.4366 5.87739 24.3757 7.75614Z" fill="#085CB2"/>
</svg>