<svg xmlns="http://www.w3.org/2000/svg" width="18" height="14" viewBox="0 0 18 14" fill="none">
  <path d="M16.56 0H1.44C0.647981 0 0 0.750797 0 1.66839V11.6787C0 12.5963 0.647981 13.3471 1.44 13.3471H16.56C17.352 13.3471 18 12.5963 18 11.6787V1.66839C18 0.750797 17.352 0 16.56 0ZM16.2 0.834239L8.99998 8.09176L1.79998 0.834239H16.2ZM0.935981 12.2627C0.791981 12.0958 0.72 11.929 0.72 11.6787V1.66839C0.72 1.41815 0.792019 1.25131 0.935981 1.08443L6.48 6.67356L0.935981 12.2627ZM1.79998 12.513L7.056 7.25752L9.00002 9.17615L10.944 7.25752L16.2 12.5129L1.79998 12.513ZM17.28 11.6787C17.28 11.929 17.208 12.0958 17.064 12.2627L11.52 6.67356L17.064 1.08443C17.208 1.25127 17.28 1.41811 17.28 1.66839V11.6787Z" fill="#085CB2"/>
</svg>