<svg xmlns="http://www.w3.org/2000/svg" width="18" height="19" viewBox="0 0 18 19" fill="none">
  <path d="M15.8881 1.92523e-06H2.10905C1.54969 1.92523e-06 1.01325 0.228172 0.617725 0.634318C0.222202 1.04046 0 1.59132 0 2.16569L0 11.4883C0 12.0626 0.222202 12.6135 0.617725 13.0196C1.01325 13.4258 1.54969 13.654 2.10905 13.654H5.38228C5.41957 13.654 5.45534 13.6692 5.4817 13.6962C5.50807 13.7233 5.52289 13.76 5.52289 13.7983V17.4699C5.52287 17.6698 5.58059 17.8652 5.68874 18.0314C5.79688 18.1976 5.9506 18.3272 6.13045 18.4037C6.3103 18.4802 6.50821 18.5002 6.69914 18.4612C6.89007 18.4222 7.06545 18.3259 7.20309 18.1846L11.573 13.6973C11.5862 13.6839 11.6018 13.6733 11.6189 13.6661C11.636 13.6589 11.6544 13.6553 11.6729 13.6554H15.891C16.4503 13.6554 16.9868 13.4272 17.3823 13.0211C17.7778 12.6149 18 12.0641 18 11.4897V2.16569C18 1.88105 17.9454 1.59919 17.8392 1.33625C17.733 1.07331 17.5774 0.834437 17.3813 0.633296C17.1851 0.432155 16.9523 0.272692 16.6961 0.164026C16.4399 0.0553596 16.1653 -0.000377602 15.8881 1.92523e-06ZM17.1536 11.4883C17.1536 11.8329 17.0202 12.1634 16.7829 12.4071C16.5456 12.6508 16.2238 12.7877 15.8881 12.7877H11.6701C11.41 12.7857 11.1598 12.8896 10.9741 13.0764L6.60834 17.571C6.58868 17.5913 6.56355 17.6052 6.53617 17.6109C6.50879 17.6165 6.48039 17.6136 6.4546 17.6026C6.4288 17.5916 6.40678 17.573 6.39135 17.5491C6.37591 17.5252 6.36775 17.4971 6.36791 17.4685V13.7983C6.36791 13.5303 6.26422 13.2732 6.07964 13.0837C5.89506 12.8942 5.64472 12.7877 5.38369 12.7877H2.10905C1.77343 12.7877 1.45157 12.6508 1.21425 12.4071C0.976939 12.1634 0.843618 11.8329 0.843618 11.4883V2.16569C0.843618 1.82107 0.976939 1.49055 1.21425 1.24687C1.45157 1.00318 1.77343 0.866278 2.10905 0.866278H15.8881C16.2238 0.866278 16.5456 1.00318 16.7829 1.24687C17.0202 1.49055 17.1536 1.82107 17.1536 2.16569V11.4883Z" fill="#085CB2"/>
</svg>