<svg xmlns="http://www.w3.org/2000/svg" width="118" height="83" viewBox="0 0 118 83" fill="none">
  <path d="M77.4389 55.3334C80.2832 55.3334 82.855 54.2934 84.813 52.6382C86.7721 54.2936 89.3439 55.3334 92.1893 55.3334C98.2956 55.3334 103.251 50.6861 103.251 44.9593C103.251 39.2313 98.2956 34.584 92.1893 34.584C89.3439 34.584 86.7721 35.6245 84.813 37.2787C82.855 35.6247 80.2832 34.584 77.4389 34.584C71.3303 34.584 66.376 39.2313 66.376 44.9593C66.376 50.6861 71.3303 55.3334 77.4389 55.3334Z" fill="#085CB2"/>
  <path d="M110.626 0H22.1253C18.0489 0 14.75 3.09389 14.75 6.91694V27.6671H22.1253H59.0005H110.626V62.2505H59.0003V69.166H110.626C114.702 69.166 118 66.0728 118 62.2505V6.91694C118 3.09389 114.702 0 110.626 0ZM110.626 13.8339H22.1253V6.91694H110.626V13.8339Z" fill="#085CB2"/>
  <path d="M25.8123 34.584C11.5527 34.584 0 45.4182 0 58.7909C0 72.1661 11.5527 83.0001 25.8123 83.0001C40.0732 83.0001 51.6259 72.1661 51.6259 58.7909C51.6256 45.4182 40.073 34.584 25.8123 34.584ZM20.5985 73.4634L7.56235 61.2373L12.7759 56.3473L20.5985 63.6823L38.8482 46.5668L44.063 51.457L20.5985 73.4634Z" fill="#20B308"/>
</svg>