<svg xmlns="http://www.w3.org/2000/svg" width="18" height="19" viewBox="0 0 18 19" fill="none">
  <path d="M9 1.20526C11.0749 1.2076 13.0642 2.0549 14.5314 3.56126C15.9985 5.06761 16.8238 7.11 16.8261 9.24031C16.8298 10.5332 16.5263 11.8074 15.9417 12.9525C15.3759 14.0601 14.5687 15.0187 13.583 15.7535C12.2491 16.7429 10.6455 17.2754 9 17.2754C7.35451 17.2754 5.75088 16.7429 4.41705 15.7535C3.43089 15.0189 2.62337 14.0603 2.05748 12.9525C1.47322 11.8073 1.16992 10.5331 1.17392 9.24031C1.1762 7.11 2.00146 5.06761 3.46864 3.56126C4.93582 2.0549 6.9251 1.2076 9 1.20526ZM9 0C7.21997 0 5.47991 0.541935 3.99987 1.55727C2.51983 2.57261 1.36628 4.01575 0.685088 5.7042C0.00389955 7.39264 -0.17433 9.25056 0.172936 11.043C0.520203 12.8355 1.37737 14.4819 2.63604 15.7742C3.89471 17.0665 5.49836 17.9465 7.24419 18.3031C8.99002 18.6596 10.7996 18.4766 12.4442 17.7772C14.0887 17.0779 15.4943 15.8935 16.4832 14.374C17.4722 12.8544 18 11.0679 18 9.24031C18 6.78963 17.0518 4.43932 15.364 2.70642C13.6761 0.97353 11.387 0 9 0Z" fill="#085CB2"/>
  <path d="M9.56912 11.6573C10.5046 11.6585 11.4013 12.0407 12.0627 12.7199C12.7241 13.3991 13.0961 14.3198 13.0971 15.2803V16.0838C11.8643 16.8603 10.4461 17.2713 8.99978 17.2713C7.55341 17.2713 6.13528 16.8603 4.90243 16.0838V15.2803C4.90346 14.3198 5.27547 13.3991 5.93685 12.7199C6.59823 12.0407 7.49499 11.6585 8.43043 11.6573H9.56912ZM9.56912 10.452H8.43043C7.8129 10.452 7.20142 10.5769 6.6309 10.8195C6.06039 11.0622 5.54202 11.4179 5.1054 11.8662C4.66877 12.3146 4.32245 12.8468 4.0862 13.4326C3.84996 14.0184 3.72841 14.6462 3.72852 15.2803V16.7266C5.26259 17.8647 7.1071 18.4773 8.99978 18.4773C10.8925 18.4773 12.737 17.8647 14.271 16.7266V15.2803C14.2711 14.6462 14.1496 14.0184 13.9133 13.4326C13.6771 12.8468 13.3308 12.3146 12.8942 11.8662C12.4575 11.4179 11.9392 11.0622 11.3686 10.8195C10.7981 10.5769 10.1867 10.452 9.56912 10.452Z" fill="#085CB2"/>
  <path d="M8.99913 5.89047C9.29047 5.89047 9.57526 5.97918 9.81749 6.14538C10.0597 6.31157 10.2485 6.54779 10.36 6.82416C10.4714 7.10052 10.5005 7.40462 10.4436 7.69798C10.3867 7.99134 10.2464 8.26078 10.0403 8.47224C9.83426 8.68369 9.57175 8.82765 9.28599 8.88591C9.00023 8.94416 8.70406 8.9141 8.43494 8.79952C8.16582 8.68495 7.93585 8.491 7.7741 8.24221C7.61235 7.99343 7.5261 7.70098 7.52626 7.40186C7.52667 7.00101 7.68201 6.6167 7.95816 6.33333C8.23431 6.04996 8.6087 5.89068 8.99913 5.89047ZM8.99913 4.68521C8.47558 4.68505 7.96374 4.84431 7.52836 5.14285C7.09298 5.44139 6.75361 5.86579 6.55319 6.36237C6.35276 6.85895 6.30028 7.40541 6.40238 7.93262C6.50448 8.45983 6.75658 8.94411 7.12679 9.3242C7.49699 9.70429 7.96868 9.96312 8.48218 10.0679C8.99567 10.1728 9.52792 10.1189 10.0116 9.91311C10.4953 9.70734 10.9086 9.35891 11.1994 8.9119C11.4902 8.4649 11.6453 7.93939 11.6451 7.40186C11.6449 6.68143 11.3661 5.99056 10.8699 5.48114C10.3737 4.97171 9.70083 4.68542 8.99913 4.68521Z" fill="#085CB2"/>
</svg>