<svg xmlns="http://www.w3.org/2000/svg" width="123" height="145" viewBox="0 0 123 145" fill="none">
  <path d="M114.695 42.7799C121.238 32.7884 112.976 20.2803 100.459 20.4397C100.622 9.02782 86.7763 1.57124 75.7637 7.54669C72.8807 2.94011 67.4731 0 61.4888 0C55.5254 0 50.1282 2.93423 47.2426 7.53021C36.2055 1.5761 22.3841 9.04362 22.5473 20.4397C9.99329 20.2986 1.78936 32.7502 8.33218 42.7739C3.24664 45.3671 0 50.256 0 55.6846C0 61.1179 3.23626 66.0114 8.31141 68.6117C1.92303 78.3322 9.51213 90.9495 22.5525 90.9495C22.5187 94.2561 23.7758 97.5127 26.0572 100.176C26.0431 100.173 26.0282 100.171 26.014 100.168C17.2104 111.994 7.68902 123.555 2.39634 136.513C2.28985 136.705 2.50268 136.874 2.68888 136.754C8.72634 133.598 15.2956 130.612 22.1575 127.722C22.2905 127.673 22.4501 127.722 22.4501 127.866C23.6469 133.406 25.0831 139.042 27.0778 144.87C27.1311 145.039 27.4236 145.039 27.5035 144.894C32.8729 131.794 42.5299 120.103 51.4006 108.192C55.6175 111.176 61.1899 112.372 66.884 110.559C75.2613 121.655 83.9975 132.655 89.021 144.894C89.0743 145.039 89.3668 145.039 89.42 144.87C91.4148 139.042 92.8775 133.406 94.0478 127.866C94.0478 127.722 94.234 127.673 94.3403 127.722C101.229 130.612 107.798 133.598 113.836 136.754C113.995 136.874 114.208 136.705 114.128 136.513C109.278 124.807 101.049 114.21 92.9847 103.538C97.7386 100.73 100.523 95.9806 100.456 90.9483C113.013 91.1758 121.252 78.5175 114.708 68.6058C125.763 62.9329 125.769 48.439 114.695 42.7799ZM110.155 65.1976L108.799 65.4693C108.642 66.1758 107.244 67.7668 108.843 69.4984C115.909 76.5857 108.799 87.9117 98.3837 85.9196C95.8526 85.3508 94.8449 87.7051 94.3189 88.1317L94.9526 89.2878C96.882 98.7641 84.4646 104.893 76.6702 98.508C74.8347 97.1166 72.87 98.4835 72.2521 98.6044L71.9768 99.7957C68.4615 108.922 54.3578 108.686 51.0061 99.7875L50.697 98.5597L49.2477 98.0705C48.2555 97.7365 47.1517 97.9187 46.2712 98.5879C41.9781 102.077 34.8956 102.173 30.5782 97.6541C28.3341 95.302 27.4095 92.1267 28.0874 89.1372C28.3523 88.3046 28.1445 87.4014 27.503 86.7345L26.09 85.4691L24.555 85.9325C14.1665 87.8324 7.08193 76.6066 14.2359 69.4255C14.9216 68.6799 15.119 67.6661 14.7528 66.7794L14.0541 65.3552L12.7476 65.1647C8.29585 63.7546 5.31933 59.9689 5.31933 55.6846C5.31933 51.3567 8.37896 47.5345 12.9554 46.1692C15.2229 45.4746 14.9127 43.3151 15.0982 42.8374L14.171 41.9036C7.02791 34.6878 14.3985 23.4756 24.62 25.4755C27.1518 26.0416 28.1757 23.6542 28.6874 23.2339L28.0536 22.0791C26.1642 12.839 38.3847 6.42375 46.2712 12.8353L46.5699 13.0435C47.4192 13.5598 48.4737 13.6527 49.4009 13.2869L50.8554 12.6166L51.0502 11.5253C52.6372 7.50437 56.8059 4.81708 61.4888 4.81708C66.2419 4.81708 70.4574 7.56904 72.0028 11.6711L72.3015 12.8095C72.9968 12.9726 74.6234 14.1802 76.439 13.0706L76.7429 12.8565C80.309 9.93875 85.4776 9.44247 89.6126 11.6217C93.6722 13.7621 95.8409 18.1123 94.9215 22.2367C94.2715 24.2741 96.422 25.3001 96.924 25.9318L98.4642 25.4602C108.777 23.5206 115.843 34.8215 108.937 41.8084C107.244 43.3412 108.58 45.1835 108.656 45.7517L110.074 46.1751C120.171 49.1883 120.212 62.1172 110.155 65.1976Z" fill="#085CB2"/>
  <path d="M61.4936 21.8181C40.828 21.8181 24.0723 36.9919 24.0723 55.7063C24.0723 74.4206 40.828 89.5945 61.4936 89.5945C82.1591 89.5945 98.9415 74.4206 98.9415 55.7063C98.9415 36.9919 82.1591 21.8181 61.4936 21.8181ZM85.59 50.7687L73.8078 61.2942C73.7545 61.3422 73.7545 61.3905 73.7545 61.4387L76.6536 76.2029C76.6802 76.3476 76.5473 76.4198 76.4142 76.3715L61.7064 69.459C61.6531 69.4349 61.5999 69.4349 61.5468 69.459L46.9187 76.5401C46.8122 76.5883 46.6527 76.4921 46.6793 76.3715L49.3922 61.5591C49.3922 61.5108 49.3656 61.4626 49.3389 61.4386L37.3971 51.0337C37.3174 50.9373 37.3439 50.7928 37.5035 50.7687L53.887 48.5287C53.9402 48.5046 53.9667 48.4807 53.9933 48.4325L61.2543 34.9447C61.3074 34.8241 61.4936 34.8241 61.5468 34.9447L68.9672 48.3601C68.9938 48.4083 69.0471 48.4325 69.1001 48.4325L85.5103 50.5038C85.6432 50.5279 85.6963 50.6724 85.59 50.7687Z" fill="#F0B725"/>
</svg>