<svg xmlns="http://www.w3.org/2000/svg" width="28" height="28" viewBox="0 0 28 28" fill="none">
  <path fill-rule="evenodd" clip-rule="evenodd" d="M18.6634 21.0325C16.6805 22.4965 22.8465 16.2071 21.0919 18.5979C21.1358 18.5944 21.0544 18.727 20.7816 19.0592C20.7816 19.0592 25.4676 23.7018 27.7678 26.0646C28.5663 26.926 27.1256 28.6452 26.1467 27.7476C24.0636 25.7318 19.1347 20.7218 19.1271 20.7136L18.6634 21.0325Z" fill="#085CB2"/>
  <path d="M11.7781 23.3801C14.7931 23.3509 17.7778 22.1053 19.924 19.9895C22.4731 17.4767 23.7857 13.7591 23.3278 10.2097C22.5433 4.12754 17.5307 0 11.7031 0C7.27534 0 2.97227 2.76279 1.08477 6.76887C-0.360126 9.83591 -0.363053 13.5389 1.08477 16.6112C2.9588 20.5893 7.19162 23.3375 11.6276 23.3801C11.6779 23.3801 11.7283 23.3801 11.7781 23.3801ZM11.6399 21.4314C7.13717 21.3881 2.93597 17.9146 2.10053 13.4612C1.51156 10.3218 2.62334 6.92421 4.93939 4.69459C7.643 2.09064 11.8928 1.21876 15.4266 2.69447C18.588 4.01484 20.9544 7.08071 21.3906 10.4584C21.7641 13.3538 20.7226 16.3881 18.6758 18.4782C16.8803 20.3119 14.3622 21.4062 11.7658 21.4314C11.7236 21.4314 11.682 21.4314 11.6399 21.4314Z" fill="#085CB2"/>
</svg>