<svg xmlns="http://www.w3.org/2000/svg" width="128" height="84" viewBox="0 0 128 84" fill="none">
  <path d="M127.998 43.268C127.998 43.2466 127.997 43.2252 127.997 43.1931C127.961 41.5827 126.673 40.2995 125.05 40.2995H124.276L112.327 17.1061C111.823 16.1262 110.817 15.5169 109.707 15.5166L89.3071 15.5123L90.0854 9.31867C90.3075 6.84352 89.5452 4.50652 87.9387 2.73762C86.3352 0.972366 84.0965 0 81.6344 0H18.3189C16.7269 0 15.3746 1.23666 15.2228 2.83101L14.5882 7.93391H50.6622C53.0046 7.93391 54.8538 9.8403 54.7926 12.192C54.7311 14.5437 52.7826 16.4499 50.4402 16.4499H38.4075C38.4096 16.456 38.4118 16.4607 38.4139 16.4714H3.07897C1.42246 16.4714 0.0443665 17.8193 0.00104597 19.4824C-0.0422714 21.1455 1.26524 22.4934 2.92174 22.4934H49.7013C51.8728 22.8297 53.4951 24.7145 53.4354 26.9971C53.37 29.504 51.303 31.5365 48.8103 31.5575H16.5594C14.8863 31.5575 13.4945 32.9192 13.4506 34.599C13.4067 36.2788 14.7275 37.6404 16.4007 37.6404H48.2717C50.475 37.9488 52.1297 39.8491 52.0697 42.154C52.004 44.6735 49.9161 46.7161 47.4065 46.7161H10.8431L7.77098 46.7194C6.09782 46.7194 4.70609 48.0812 4.66216 49.761C4.61821 51.4406 5.93877 52.8024 7.61224 52.8024H10.2636L9.22663 63.6962C9.00427 66.1711 9.76648 68.5081 11.3733 70.277C12.9765 72.0425 15.2156 73.0146 17.6776 73.0146H19.9648C21.0548 79.272 26.4472 84 33.0433 84C39.6393 84 45.2783 79.272 46.694 73.0149H75.2372C77.545 73.0149 79.7298 72.1293 81.4433 70.6784C83.0101 72.1882 85.0871 73.0149 87.355 73.0149H87.8245C88.9142 79.272 94.3066 84 100.903 84C107.499 84 113.138 79.272 114.554 73.0149H116.438C121.346 73.0149 125.698 69.009 126.141 64.0852L127.987 43.5536C127.989 43.5215 127.988 43.5001 127.99 43.468C127.993 43.4251 127.999 43.3823 128 43.3416C128.001 43.3202 127.998 43.2895 127.998 43.268ZM33.202 77.9165C29.0259 77.9165 25.7172 74.5058 25.8265 70.3132C25.9359 66.1202 29.4225 62.7092 33.5986 62.7092C37.7747 62.7092 41.0832 66.1202 40.9738 70.3132C40.8644 74.5058 37.3781 77.9165 33.202 77.9165ZM101.062 77.9165C96.8856 77.9165 93.5772 74.5058 93.6862 70.3132C93.7956 66.1202 97.2822 62.7092 101.458 62.7092C105.634 62.7092 108.943 66.1202 108.833 70.3132C108.724 74.5058 105.238 77.9165 101.062 77.9165ZM120.105 63.6956C119.947 65.4496 118.341 66.9314 116.597 66.9314H114.559C113.21 61.0148 107.972 56.6263 101.617 56.6263C95.2619 56.6263 89.7952 61.0148 88.1375 66.9314H87.5137C86.7436 66.9314 86.0566 66.6412 85.5782 66.1143C85.0968 65.5842 84.8702 64.8634 84.9402 64.0838L88.76 21.5976L97.533 21.5994L96.1425 37.0658C95.9198 39.5406 96.6817 41.8776 98.2883 43.6465C99.8915 45.4124 102.131 46.3851 104.593 46.3851H121.661L120.105 63.6956Z" fill="#FF4E43"/>
</svg>