<svg xmlns="http://www.w3.org/2000/svg" width="139" height="146" viewBox="0 0 139 146" fill="none">
  <path fill-rule="evenodd" clip-rule="evenodd" d="M56.4688 111.722V109.523C56.4688 101.967 62.3067 95.8353 69.5 95.8353C76.6932 95.8353 82.5312 101.967 82.5312 109.523V111.722C97.7083 106.083 108.594 90.8667 108.594 73C108.594 50.3381 91.0754 31.9375 69.5 31.9375C47.9246 31.9375 30.4062 50.3381 30.4062 73C30.4062 90.8667 41.2917 106.083 56.4688 111.722ZM79.2604 82.125C76.8713 84.9173 73.4137 86.6738 69.5652 86.6738C65.6862 86.6738 62.2025 84.8853 59.8134 82.0566C58.2236 80.1723 55.474 79.9989 53.6801 81.6687C51.8861 83.3432 51.721 86.2267 53.3108 88.111C57.2941 92.8241 63.1017 95.7988 69.5652 95.7988C75.9765 95.7988 81.745 92.8742 85.7196 88.2251C87.3224 86.3544 87.1747 83.4664 85.3938 81.7828C83.6085 80.0992 80.8632 80.2544 79.2604 82.125Z" fill="#085CB2"/>
  <path fill-rule="evenodd" clip-rule="evenodd" d="M14.4565 59.7278C8.64887 61.0919 4.30078 66.5441 4.30078 73.0548C4.30078 80.5966 10.1301 86.715 17.306 86.715C24.4862 86.715 30.3112 80.5966 30.3112 73.0548C30.3112 67.7167 27.3878 63.0903 23.1353 60.8456C28.313 39.0505 47.1215 22.8901 69.5005 22.8901C91.8578 22.8901 110.649 39.0231 115.853 60.7817C111.531 62.9991 108.551 67.6665 108.551 73.0548C108.551 78.434 111.518 83.0878 115.822 85.3188C115.805 85.3918 115.783 85.4694 115.766 85.5424C110.796 105.7 94.1426 120.947 73.8442 122.873V109.523C73.8442 107.004 71.8982 104.96 69.5005 104.96C67.1027 104.96 65.1567 107.004 65.1567 109.523V127.727C65.1567 130.246 67.1027 132.29 69.5005 132.29C69.8045 132.29 70.1042 132.258 70.3909 132.194C96.2753 131.774 117.955 113.05 124.175 87.8328C124.297 87.3446 124.41 86.8518 124.518 86.3591C130.27 84.9493 134.561 79.5244 134.561 73.0548C134.561 66.5989 130.287 61.1832 124.553 59.7643C118.819 33.4386 96.3362 13.7651 69.5005 13.7651C42.6778 13.7651 20.2032 33.4204 14.4565 59.7278Z" fill="#FF4E43"/>
</svg>